<svg xmlns="http://www.w3.org/2000/svg" width="267.958" height="69.65" viewBox="0 0 267.958 69.65"><g id="Grupo_873" data-name="Grupo 873" transform="translate(-2 -0.22)"><g id="Grupo_1" data-name="Grupo 1" transform="translate(2 0.22)"><path id="Trazado_1" data-name="Trazado 1" d="M82.315.3c71.647,16.963,16.909,44.186,4.017,46.91,19.232-1.886,35.161-9.819,38.463-20.316C131.981,4.072,78.969-.489,82.315.3ZM93.31,11.612c-2.095-.367-14.586,7.121-19.662,16.752,0,0,33.395,3.354,36.566-7.117C110.848,19.152,102.816,13.286,93.31,11.612ZM39.835,43.026a138.692,138.692,0,0,1,22.4-2.724s1.941-17.026,26-29.736c3.168-1.676-14.794-3.143-23.667-.63C61.408,10.829,41.949,23.968,39.835,43.026Zm215.312,21.7-1.205,4.585a22.986,22.986,0,0,0,2.281.413,17.226,17.226,0,0,0,2.174.142,12.283,12.283,0,0,0,5.76-1.167,5.981,5.981,0,0,0,2.989-3.46,3.139,3.139,0,0,0,.118-1.965,5.109,5.109,0,0,0-1.536-2c-.111-.1-.272-.241-.479-.422-.833-.74-1.2-1.276-1.085-1.6a.916.916,0,0,1,.522-.5,2.347,2.347,0,0,1,1.008-.193,7.517,7.517,0,0,1,1.376.137,16.322,16.322,0,0,1,1.838.469l1.053-4.182c-.851-.182-1.672-.316-2.458-.4a19.958,19.958,0,0,0-2.253-.132,10.541,10.541,0,0,0-5.063,1.182,5.566,5.566,0,0,0-2.834,3.043,2.939,2.939,0,0,0-.066,1.93,5.961,5.961,0,0,0,1.4,2.086c.172.185.406.43.7.718q1.1,1.133.937,1.606a.832.832,0,0,1-.508.491,2.865,2.865,0,0,1-1.067.162,6.414,6.414,0,0,1-1.559-.235A15.317,15.317,0,0,1,255.147,64.73Zm.438-5.768,1.359-4.087a17.236,17.236,0,0,0-2.117-.355,20.417,20.417,0,0,0-2.195-.116,13.258,13.258,0,0,0-7.556,2.113,11.325,11.325,0,0,0-4.464,5.931q-1.235,3.622.386,5.511t5.966,1.89c.7,0,1.409-.039,2.128-.109s1.477-.186,2.262-.342l2.154-4.492a11.238,11.238,0,0,1-1.924.481,12.31,12.31,0,0,1-2.04.17,3.531,3.531,0,0,1-2.71-.808,2.373,2.373,0,0,1-.154-2.429,5.336,5.336,0,0,1,2.148-2.836,6.69,6.69,0,0,1,3.713-.99,9.971,9.971,0,0,1,1.534.12A10.247,10.247,0,0,1,255.584,58.963Zm-26.16,10.551h6.066q1.8-4.956,3.279-8.7t2.553-6.1h-6.061q-1.6,4.466-3.094,8.265T229.424,69.514Zm-18.942,0h5.48q.616-1.8,1.673-4.441l.056-.165,1.212-2.99.583,3.57a4.364,4.364,0,0,0,.075.456,22.867,22.867,0,0,1,.44,3.57h6.8c.05-.169.107-.346.164-.529s.149-.458.272-.813c.375-1.077.846-2.351,1.432-3.819.128-.313.214-.528.25-.646l2.047-5.235c.193-.509.415-1.039.653-1.592s.572-1.274.994-2.161h-5.186c-.277.8-.515,1.489-.726,2.072s-.383,1.045-.525,1.389l-1.729,4.112-1.237-7.573h-6.783c-.107.268-.261.67-.465,1.2Q212.131,65.947,210.482,69.514Zm-11.246.313a13.458,13.458,0,0,0,7.631-2.154,11.213,11.213,0,0,0,4.519-5.88q1.2-3.523-.547-5.458T204.666,54.4a13.142,13.142,0,0,0-7.475,2.143,11.242,11.242,0,0,0-4.466,5.858q-1.2,3.5.515,5.463C194.379,69.173,196.382,69.827,199.236,69.827Zm-.524-7.462a6.506,6.506,0,0,1,1.845-2.839,4.092,4.092,0,0,1,2.716-.986,2.222,2.222,0,0,1,2.074.881,3.085,3.085,0,0,1-.041,2.54,6.024,6.024,0,0,1-1.788,2.749,4.112,4.112,0,0,1-2.694.98,2.31,2.31,0,0,1-2.115-.861A2.875,2.875,0,0,1,198.712,62.365Zm-24.777,7.149h5.731q.531-1.562,1-2.859c.3-.865.547-1.523.724-1.975l2.326-6c.283-.041.531-.076.749-.1a4.672,4.672,0,0,1,.536-.036,2.387,2.387,0,0,1,1.416.287c.229.192.274.506.127.941a1.629,1.629,0,0,1-.8.935,3.166,3.166,0,0,1-1.529.315,4.035,4.035,0,0,1-.456-.032c-.2-.021-.335-.033-.4-.033l-.318.286c-.164,1.593-.32,3.067-.483,4.419s-.324,2.64-.493,3.855H188.1c0-1.271.021-2.451.041-3.537s.054-2.071.09-2.969a7.635,7.635,0,0,0,2.7-1.647,6.272,6.272,0,0,0,1.577-2.486,4.541,4.541,0,0,0,.266-2.019,2.194,2.194,0,0,0-.733-1.419,2.68,2.68,0,0,0-1.187-.556,13.538,13.538,0,0,0-2.566-.163h-8.522q-1.589,4.451-3.083,8.247T173.934,69.514Zm-11.724,0h5.941q1.364-3.778,2.468-6.647t1.626-4.061c.127-.006.265-.012.42-.014s.372-.005.645-.005h.9c.511,0,.94.005,1.282.013s.678.028,1.007.05l1.557-4.133h-14.3l-1.525,4.133c.672-.022,1.2-.038,1.577-.05s.634-.013.758-.013c.238,0,.567,0,1,.009s.742.01.942.01l-.154.451q-.743,2.158-1.779,4.736T162.211,69.514Zm-1.273-10.551,1.356-4.087a17.085,17.085,0,0,0-2.117-.355,20.358,20.358,0,0,0-2.194-.116,13.258,13.258,0,0,0-7.557,2.113,11.279,11.279,0,0,0-4.459,5.931q-1.244,3.622.382,5.511t5.966,1.89c.7,0,1.407-.039,2.133-.109s1.472-.186,2.257-.342l2.154-4.492a11.1,11.1,0,0,1-1.927.481,12.256,12.256,0,0,1-2.038.17,3.547,3.547,0,0,1-2.712-.808,2.385,2.385,0,0,1-.153-2.429,5.334,5.334,0,0,1,2.155-2.836,6.655,6.655,0,0,1,3.712-.99,9.883,9.883,0,0,1,1.529.12A10.4,10.4,0,0,1,160.938,58.963ZM128.346,69.514h13.03l1.515-3.954c-.633.052-1.272.091-1.915.117s-1.376.037-2.2.037h-3.16l.733-1.788h3.04c.684,0,1.251,0,1.692.016s.88.026,1.3.05l1.486-3.863h-.132c-1.764.073-2.825.106-3.174.106H137.79l.719-1.786h3.657c.545,0,1.105.016,1.684.041s1.194.077,1.821.144l1.518-3.918H134.178q-1.567,4.388-3.052,8.146T128.346,69.514Zm-13.548,0h12.141l1.666-4.221c-.836.036-1.6.061-2.294.08s-1.345.027-1.963.027c-.52,0-.913,0-1.174,0s-.5-.01-.713-.018q1.427-3.951,2.54-6.7t1.755-3.961H120.6q-1.617,4.531-3.083,8.271T114.8,69.514Zm-15.336,0h13.029l1.517-3.954q-.95.078-1.915.117t-2.2.037h-3.162l.732-1.788H110.5c.685,0,1.247,0,1.691.016s.88.026,1.306.05l1.487-3.863h-.133q-2.647.109-3.176.106H108.9l.721-1.786h3.657c.544,0,1.107.016,1.687.041s1.188.077,1.819.144l1.517-3.918h-13.01q-1.566,4.388-3.05,8.146T99.462,69.514Zm-24.252,0h5.732q.535-1.562.994-2.859t.726-1.975l2.328-6c.279-.041.528-.076.747-.1a4.673,4.673,0,0,1,.533-.036,2.385,2.385,0,0,1,1.417.287c.234.192.274.506.125.941a1.618,1.618,0,0,1-.794.935,3.182,3.182,0,0,1-1.529.315,3.923,3.923,0,0,1-.456-.032c-.2-.021-.336-.033-.4-.033l-.318.286q-.244,2.389-.487,4.419t-.492,3.855h6.04c0-1.271.019-2.451.04-3.537s.051-2.071.087-2.969a7.6,7.6,0,0,0,2.707-1.647,6.214,6.214,0,0,0,1.573-2.486,4.449,4.449,0,0,0,.265-2.019,2.161,2.161,0,0,0-.73-1.419,2.7,2.7,0,0,0-1.185-.556,13.575,13.575,0,0,0-2.569-.163H81.043q-1.587,4.451-3.082,8.247T75.21,69.514Zm-15.269,0H72.972l1.517-3.954q-.951.078-1.917.117t-2.2.037H67.212l.732-1.788h3.041c.683,0,1.246,0,1.691.016s.877.026,1.3.05l1.488-3.863h-.134q-2.648.109-3.176.106H69.383l.721-1.786h3.658c.542,0,1.1.016,1.686.041s1.187.077,1.819.144l1.517-3.918H65.776q-1.567,4.388-3.052,8.146T59.941,69.514Zm-11.076,0h6.266l9.39-14.8H59.7l-5.247,8.739,1.569-8.739h-5.66l-5.081,8.444L47,54.718H42.033l-2.551,14.8h5.9l5.089-8.4ZM26.2,69.827a13.457,13.457,0,0,0,7.632-2.154,11.211,11.211,0,0,0,4.518-5.88q1.205-3.523-.544-5.458T31.631,54.4a13.128,13.128,0,0,0-7.472,2.143,11.235,11.235,0,0,0-4.466,5.858q-1.2,3.5.512,5.463T26.2,69.827Zm-.519-7.462a6.474,6.474,0,0,1,1.841-2.839,4.09,4.09,0,0,1,2.715-.986,2.217,2.217,0,0,1,2.076.881,3.067,3.067,0,0,1-.043,2.54,5.983,5.983,0,0,1-1.787,2.749,4.11,4.11,0,0,1-2.691.98,2.311,2.311,0,0,1-2.117-.861A2.864,2.864,0,0,1,25.681,62.365ZM2,69.514q1.257-2.761,2.749-6.549t3.086-8.247h7.672a13.242,13.242,0,0,1,2.465.153,2.869,2.869,0,0,1,1.146.5,2.077,2.077,0,0,1,.764,1.434,4.679,4.679,0,0,1-.279,2.133A8.266,8.266,0,0,1,16.722,63,7.332,7.332,0,0,1,12.2,64.505c-.244,0-.482-.007-.718-.027s-.473-.045-.71-.082l.394-3.538.31-.2H12.1a1.84,1.84,0,0,0,1.069-.3,1.692,1.692,0,0,0,.637-.884c.128-.368.112-.642-.052-.813a1.362,1.362,0,0,0-.982-.259c-.1,0-.238.012-.406.03s-.363.044-.589.082l-2.32,6.168c-.15.379-.383,1.007-.7,1.892S8.1,68.438,7.735,69.514Z" transform="translate(-2 -0.22)" fill="#fff"></path></g></g></svg>